/* XPM */
static char *result[] = {
/* columns rows colors chars-per-pixel */
"70 70 247 2 ",
"   c #C3A211",
".  c #C4A311",
"X  c #C4A314",
"o  c #C4A416",
"O  c #C8A716",
"+  c #C8A717",
"@  c #CBAA15",
"#  c #CBAA17",
"$  c #C6A61E",
"%  c #C8A819",
"&  c #CBAA18",
"*  c #C8A81B",
"=  c #CBAB1B",
"-  c #CDAC18",
";  c #CDAC19",
":  c #CAAA1C",
">  c #CAAA1D",
",  c #CAAA1E",
"<  c #CAAA1F",
"1  c #D1B01E",
"2  c #D1B11E",
"3  c #C7A721",
"4  c #CAAD2F",
"5  c #D8B822",
"6  c #D8B823",
"7  c #D9B923",
"8  c #D9BA26",
"9  c #CBAF33",
"0  c #CFB43D",
"q  c #CFB43E",
"w  c #E0C128",
"e  c #EECD2A",
"r  c #EBCB2C",
"t  c #EBCC2F",
"y  c #EECE2C",
"u  c #EECF2F",
"i  c #F0CF2E",
"p  c #F8D82E",
"a  c #F8D82F",
"s  c #F0D130",
"d  c #F4D432",
"f  c #F4D532",
"g  c #F5D532",
"h  c #F5D533",
"j  c #F7D732",
"k  c #F4D535",
"l  c #F8D830",
"z  c #F8D831",
"x  c #F8D832",
"c  c #F8D833",
"v  c #F8D835",
"b  c #F8D936",
"n  c #F8D837",
"m  c #F8D937",
"M  c #F8D838",
"N  c #F8D938",
"B  c #F8D939",
"V  c #F8D93B",
"C  c #F8DA3B",
"Z  c #F8DA3C",
"A  c #F8DA3D",
"S  c #F8D93E",
"D  c #CFB543",
"F  c #CFB643",
"G  c #CFB544",
"H  c #CFB644",
"J  c #CFB645",
"K  c #CFB646",
"L  c #D1B746",
"P  c #D1B747",
"I  c #D1B749",
"U  c #D1B84A",
"Y  c #D1B94D",
"T  c #D3B94E",
"R  c #D2BA4E",
"E  c #D2BA4F",
"W  c #D3BA4F",
"Q  c #D2B950",
"!  c #D3B950",
"~  c #D3BA50",
"^  c #D3BA51",
"/  c #D3BA52",
"(  c #D3BB52",
")  c #D4BC55",
"_  c #D4BC57",
"`  c #D5BD57",
"'  c #D5BD58",
"]  c #D4BE58",
"[  c #D5BE58",
"{  c #D5BE59",
"}  c #D5BD5A",
"|  c #D4BE5A",
" . c #D5BF5B",
".. c #D5BF5C",
"X. c #D5BF5D",
"o. c #DAC150",
"O. c #DBC253",
"+. c #D9C257",
"@. c #D7C15B",
"#. c #D6C05E",
"$. c #D6C05F",
"%. c #DBC45D",
"&. c #DCC55C",
"*. c #F8DA40",
"=. c #F8DB40",
"-. c #F8DB41",
";. c #F9DA42",
":. c #F8DB43",
">. c #F9DC45",
",. c #F8DC46",
"<. c #F8DC47",
"1. c #F8DC49",
"2. c #F8DC4A",
"3. c #F9DC4B",
"4. c #F8DD4C",
"5. c #F8DD4D",
"6. c #F9DD4F",
"7. c #E6CE58",
"8. c #E7CE59",
"9. c #F8DD53",
"0. c #F8DE53",
"q. c #F9DF54",
"w. c #F8DF57",
"e. c #F9DF57",
"r. c #F9DF58",
"t. c #F8DF5A",
"y. c #F9DF5B",
"u. c #F9E05A",
"i. c #F9E05D",
"p. c #F9E05E",
"a. c #D6C060",
"s. c #D6C061",
"d. c #D7C061",
"f. c #D7C161",
"g. c #D7C162",
"h. c #D7C163",
"j. c #D7C164",
"k. c #D8C264",
"l. c #D8C265",
"z. c #D9C46D",
"x. c #D9C56D",
"c. c #DAC56C",
"v. c #D9C56E",
"b. c #D9C56F",
"n. c #DAC56E",
"m. c #DAC76F",
"M. c #DDC86A",
"N. c #DFCA6B",
"B. c #DAC570",
"V. c #DAC771",
"C. c #DBC771",
"Z. c #DCC870",
"A. c #DEC971",
"S. c #E8D161",
"D. c #E8D162",
"F. c #E6D16F",
"G. c #E8D36F",
"H. c #F0D963",
"J. c #F1DB69",
"K. c #F3DD6B",
"L. c #E7D278",
"P. c #EAD678",
"I. c #F4DF78",
"U. c #F9E160",
"Y. c #F9E061",
"T. c #F9E162",
"R. c #F9E163",
"E. c #FAE165",
"W. c #FAE267",
"Q. c #F7E06B",
"!. c #F7E16F",
"~. c #FAE269",
"^. c #F9E26A",
"/. c #F9E36B",
"(. c #FAE36A",
"). c #FAE26B",
"_. c #FAE36B",
"`. c #FAE36C",
"'. c #FAE46E",
"]. c #FAE471",
"[. c #F9E473",
"{. c #FAE472",
"}. c #FAE473",
"|. c #FAE475",
" X c #FAE575",
".X c #FAE576",
"XX c #FAE577",
"oX c #F4E07F",
"OX c #FAE679",
"+X c #F8E47D",
"@X c #FAE67F",
"#X c #E4D595",
"$X c #E6D795",
"%X c #E4D697",
"&X c #E5D697",
"*X c #E8DA9B",
"=X c #EDDF9C",
"-X c #F7E480",
";X c #F4E384",
":X c #F8E480",
">X c #F9E480",
",X c #FAE681",
"<X c #FBE782",
"1X c #FAE783",
"2X c #FAE784",
"3X c #FAE787",
"4X c #FAE888",
"5X c #FBE888",
"6X c #FAE889",
"7X c #FBE98B",
"8X c #FAE88C",
"9X c #FBE98D",
"0X c #FAE991",
"qX c #FBEA95",
"wX c #FBEB95",
"eX c #F8E897",
"rX c #FBEA97",
"tX c #F6E798",
"yX c #FBEA98",
"uX c #FBEB98",
"iX c #FAEA99",
"pX c #FCEB99",
"aX c #FBEC9A",
"sX c #FBEC9B",
"dX c #FBEC9D",
"fX c #FCEC9C",
"gX c #E7DBA2",
"hX c #E8DBA3",
"jX c #E8DBA5",
"kX c #E9DDA4",
"lX c #EADDA4",
"zX c #F7E9A3",
"xX c #FAECA1",
"cX c #FBECA1",
"vX c #FCECA0",
"bX c #FBECA5",
"nX c #FCECA4",
"mX c #FCEDA5",
"MX c #FCEDA6",
"NX c #FCEDA7",
"BX c #FCEDAA",
"VX c #FCEEAB",
"CX c #F8EBAC",
"ZX c #FCF0AF",
"AX c #FCF1B6",
"SX c #FCF2B9",
"DX c None",
/* pixels */
"DXDXDXDXDXDXDXDXDXDXDXDXDXDXDXDXDXDXDXDXDXDXDXDXDXDXDXDXDXDXDXDXDXDXDXDXDXDXDXDXDXDXDXDXDXDXDXDXDXDXDXDXDXDXDXDXDXDXDXDXDXDXDXDXDXDXDXDXDXDX",
"DXDXDXDXDXDXDXDXDXDXDXDXDXDXDXDXDXmXcXDXDXDXDXDXDXDXDXDXDXDXDXDXDXDXDXDXDXDXDXDXDXDXDXDXDXDXDXDXDXDXDXDXDXDXDXDXDXDXDXDXDXDXDXDXDXDXDXDXDXDX",
"DXDXDXDXDXDXDXDXDXDXDXDXDXDXDXDXDX(.1.DXDXDXDXDXDXDXDXDXDXDXDXDXDXDXDXDXDXDXDXDXDXDXDXDXDXDXDXDXDXDXDXDXDXDXDXDXDXDXDXDXDXDXDXDXDXDXDXDXDXDX",
"DXDXDXDXDXDXDXDXDXDXDXDXDXDXDXDXDX5.z DXDXDXDXDXDXDXDXDXDXDXDXDXDXDXDXDXDXDXDXDXDXDXDXDXDXDXDXDXDXDXDXDXDXDXDXDXDXDXDXDXDXDXDXDXDXDXDXDXDXDX",
"DXDXDXDXDXDXDXDXDXDXDXDXDXDXDXDXDXM x DXDXDXDXDXDXDXDXDXDXDXDXDXDXDXDXDXDXDXDXDXDXDXDXDXDXDXDXDXDXDXDXDXDXDXDXDXDXDXDXDXDXDXDXDXDXDXDXDXDXDX",
"DXDXDXDXDXDXDXDXDXDXDXDXDXDXDXDXsXz x [.DXDXDXDXDXDXDXDXDXDXDXDXDXDXDXDXDXDXDXDXDXDXDXDXDXDXDXDXDXDXDXDXDXDXDXDXDXDXDXDXDXDXDXDXDXDXDXDXDXDX",
"DXDXDXDXDXDXDXDXDXDXDXDXDXDXDXDXU.x x T.DXDXDXDXDXDXDXDXDXDXDXDXDXDXAXSXDXDXDXDXDXDXDXDXDXDXDXDXDXDXDXDXDXDXDXDXDXDXDXDXDXDXDXDXDXDXDXDXDXDX",
"DXDXDXDXDXDXDXDXDXDXDXDXDXDXDXDXb x x =.DXDXDXDXDXDXDXDXDXDXDXDXDXDX]. XDXDXDXDXDXDXDXDXDXDXDXDXDXDXDXDXDXDXDXDXDXDXDXDXDXDXDXDXDXDXDXDXDXDX",
"DXDXDXDXDXDXDXDXDXDXDXDXDXDXDXDXz x x c nXDXDXDXDXDXDXDXDXDXDXDXDXDX0.w.DXDXDXDXDXDXDXDXDXDXDXDXDXDXDXDXDXDXDXDXDXDXDXDXDXDXDXDXDXDXDXDXDXDX",
"DXDXDXDXDXDXDXDXDXDXDXDXDXDXDX7Xx x x z {.DXDXDXDXDXDXDXDXDXDXDXDXDXx c DXDXDXDXDXDXDXDXDXDXDXDXDXDXDXDXDXDXDXDXDXDXDXDXDXDXDXDXDXDXDXDXDXDX",
"DXDXDXDXDXDXDXDXDXDXDXDXDXDXDX|.x x x x 3.DXDXDXDXDXDXDXDXDXDXDXDXuXx x dXDXDXDXDXDXDXDXDXDXDXDXDXDXDXDXDXDXDXDXDXDXDXDXDXDXDXDXDXDXDXDXDXDX",
"DXDXDXDXDXDXDXDXDXDXDXDXDXDXDX).x x x x V DXDXDXDXDXDXDXDXDXDXDXDX/.x x }.DXDXDXDXDXDXDXDXDXDXDXDXDXDXpXDXDXDXDXDXDXDXDXDXDXDXDXDXDXDXDXDXDX",
"DXDXDXDXDXDXDXDXDXDXDXDXDXDXDXi.x x x x a DXDXDXDXDXDXDXDXDXDXDXDXZ x x A DXDXDXDXDXDXDXDXDXDXDXDXDXDX:.vXDXDXDXDXDXDXDXDXDXDXDXDXDXDXDXDXDX",
"DXDXDXDXDXDXDXDXDXDXDXDXDXDXDX6.x x x x z DXDXDXDXDXDXDXDXDXDXDXDXz x x z DXDXDXDXDXDXDXDXDXDXDXDXDXDXl T.DXDXDXDXDXDXDXDXDXDXDXDXDXDXDXDXDX",
"DXDXDXDXDXDXDXDXDXDXDXDXDXDXDX*.x x x x x DXDXDXDXDXDXDXDXDXDXDXwXx x x x fXDXDXDXDXDXDXDXDXDXDXDXDX<Xx p DXDXDXDXDXDXDXDXDXDXDXDXDXDXDXDXDX",
"DXDXDXDXDXDXDXDXDXDXDXDXDXDXDXc x x x x x BXDXDXDXDXDXDXDXDXDXDX@Xx x x x @XDXDXDXDXDXDXDXDXDXDXDXDX~.x x 4XDXDXDXDXDXDXDXDXDXDXDXDXDXDXDXDX",
"DXDXDXDXDXDXDXDXDXDXDXDXDXDXDXa x x x x x rXDXDXDXDXDXDXDXDXDXDX_.x x x x `.DXDXDXDXDXDXDXDXDXDXDXDX5.x x ,.DXDXDXDXDXDXDXDXDXDXDXDXDXDXDXDX",
"DXDXDXDXDXDXDXDXDXDXDXDXDXDXDXa x x x x x 9XDXDXDXDXDXDXDXDXDXDXY.x x x x R.DXDXDXDXDXDXDXDXDXDXDXDXN x x z DXDXDXDXDXDXDXDXDXDXDXDXDXDXDXDX",
"DXDXDXDXDXDXDXDXDXDXDXDXDXDXNXa x x x x x 3XDXDXDXDXDXDXDXDXDXDXe.x x x x u.DXDXDXDXDXDXDXDXDXDXDXdXx x x z DXDXDXDXDXDXDXDXDXDXDXDXDXDXDXDX",
"DXDXDXDXDXDXDXDXDXDXDXDXDXDX=X7 8 8 8 8 8 L.DXDXDXDXDXDXDXDXDXMX2.x x x x <.DXDXDXDXDXDXDXDXDXDXDX^.x x x x 5XDXDXDXDXDXDXDXDXDXDXDXDXDXDXDX",
"DXDXDXDXDXDXDXDXDXDXDXDXDXDX%X. X X X X X x.DXDXDXDXDXDXDXDXDX0X*.x x x x S DXDXDXDXDXDXDXDXDXDXDX>.x x x x {.DXDXDXDXDXDXDXDXDXDXDXDXDXDXDX",
"DXDXDXDXDXDXDXDXDXDXDXDXDXDX&X. X X X X X x.DXDXDXDXDXDXDXDXDXOXv x x x x c DXDXDXDXDXDXDXDXDXDXDXx x x x x E.DXDXDXDXDXDXDXDXDXDXDXDXDXDXDX",
"DXDXDXDXDXDXDXDXDXDXDXDXDXDX#X. X X X X X v.DXDXDXDXDXDXDXDXDX'.l x x x x a ZXDXDXDXDXDXDXDXDXDXDXa x x x x q.DXDXDXDXDXDXDXDXDXDXDXDXDXDXDX",
"DXDXDXDXDXDXDXDXDXDXDXDXDXDX#X. X X X X X x.DXDXDXDXDXDXDXDXDXK.y u u u u y CXDXDXDXDXDXDXDXDXDXDXx x x x x ;.DXDXDXDXDXDXDXDXDXDXDXDXDXDXDX",
"DXDXDXDXDXDXDXDXDXDXDXDXDXDX&X. X X X X X n.DXDXDXDXDXDXDXDXDX%.# = = = = # lXDXDXDXDXDXDXDXDXDXDXx x x x x m DXDXDXDXDXDXDXDXDXDXDXDXDXDXDX",
"DXDXDXDXDXDXDXDXDXDXDXDXDXDX&X. X X X X X B.DXDXDXDXDXDXDXDXDX]   X X X X   gXDXDXDXDXDXDXDXDXDXVXx x x x x z DXDXDXDXDXDXDXDXDXDXDXDXDXDXDX",
"DXDXDXDXDXDXDXDXDXDXDXDXDXDXDX5 6 6 6 6 6 F.DXDXDXDXDXDXDXDXDX[   X X X X   gXDXDXDXDXDXDXDXDXDXyXx x x x x a DXDXDXDXDXDXDXDXDXDXDXDXDXDXDX",
"DXDXDXDXDXDXDXDXDXDXDXDXDXDXy.j j j j j j 9.DXDXDXDXDXDXDXDXDX]   X X X X   DXDXDXDXDXDXDXDXDXDX8Xx x x x x a DXDXDXDXDXDXDXDXDXDXDXDXDXDXDX",
"DXDXDXDXDXDXDXDXDXDXDXDXDXDXx x x x x x x z qXDXDXDXDXDXDXDXDX]   X X X X   hXDXDXDXDXDXDXDXDXDXoXy y y y y e zXDXDXDXDXDXDXDXDXDXDXDXDXDXDX",
"DXDXDXDXDXDXDXDXDXDXDXDXDXW.x x x x x x x x <.DXDXDXDXDXDXDXDX`   X X X X   hXDXDXDXDXDXDXDXDXDXA.& & & & & @ *XDXDXDXDXDXDXDXDXDXDXDXDXDXDX",
"DXDXDXDXDXDXDXDXDXDXDXDXDXk d d d d d d d d d eXDXDXDXDXDXDXDX@.+ * * * * + kXDXDXDXDXDXDXDXDXDXz.X X X X X . &XDXDXDXDXDXDXDXDXDXDXDXDXDXDX",
"DXDXDXDXDXDXDXDXDXDXDXDXN.1 1 1 1 1 1 1 1 1 1 &.DXDXDXDXDXDXDXH.r t t t t r tXDXDXDXDXDXDXDXDXDXz.X X X X X . DXDXDXDXDXDXDXDXDXDXDXDXDXDXDX",
"DXDXDXDXDXDXDXDXDXDXDXDX#.X X X X X X X X X X ^ DXDXDXDXDXDXDX4.x x x x x x t.DXDXDXDXDXDXDXDXDXz.X X X X X . DXDXDXDXDXDXDXDXDXDXDXDXDXDXDX",
"DXDXDXDXDXDXDXDXDXDXDXDX$.X X X X X X X X X X ^ DXDXDXDXDXDX6Xx x x x x x x x ,XDXDXDXDXDXDXDXDXv.X X X X X . DXDXDXDXDXDXDXDXDXDXDXDXDXDXDX",
"DXDXDXDXDXDXDXDXDXDXDXDX#.X X X X X X X X X X ^ DXDXDXDXDXDXZ x x x x x x x x B DXDXDXDXDXDXDXDXb.X X X X X . DXDXDXDXDXDXDXDXDXDXDXDXDXDXDX",
"DXDXDXDXDXDXDXDXDXDXDXDXa.X X X X X X X X X X ( DXDXDXDXDX-Xf f f f f f f f f f :XDXDXDXDXDXDXDXZ.% % % % % O $XDXDXDXDXDXDXDXDXDXDXDXDXDXDX",
"DXDXDXDXDXDXDXDXDXDXDXDXa.X X X X X X X X X X / DXDXDXDXDXo.2 2 2 2 2 2 2 2 2 2 O.DXDXDXDXDXDXDXJ.r r r r r r I.DXDXDXDXDXDXDXDXDXDXDXDXDXDX",
"DXDXDXDXDXDXDXDXDXDXDXDX$.X X X X X X X X X X / DXDXDXDXDXJ X X X X X X X X X X L DXDXDXDXDXDXDXC x x x x x x z DXDXDXDXDXDXDXDXDXDXDXDXDXDX",
"DXDXDXDXDXDXDXDXDXDXDXDXa.X X X X X X X X X X ( DXDXDXDXDXJ X X X X X X X X X X L DXDXDXDXDXDX.Xx x x x x x x x qXDXDXDXDXDXDXDXDXDXDXDXDXDX",
"DXDXDXDXDXDXDXDXDXDXDXDXa.X X X X X X X X X X ( DXDXDXDXDXG X X X X X X X X X X P DXDXDXDXDXDX-.x x x x x x x x p.DXDXDXDXDXDXDXDXDXDXDXDXDX",
"DXDXDXDXDXDXDXDXDXDXDXDXs.X X X X X X X X X X ^ DXDXDXDXDXJ X X X X X X X X X X K DXDXDXDXDX;Xi i i i i i i i i s zXDXDXDXDXDXDXDXDXDXDXDXDX",
"DXDXDXDXDXDXDXDXDXDXDXDXd.X X X X X X X X X X ^ DXDXDXDXDXK X X X X X X X X X X K DXDXDXDXDX+.; ; ; ; ; ; ; ; ; - M.DXDXDXDXDXDXDXDXDXDXDXDX",
"DXDXDXDXDXDXDXDXDXDXDXDXg.X X X X X X X X X X ^ DXDXDXDXDXK X X X X X X X X X X J DXDXDXDXDX^ X X X X X X X X X X #.DXDXDXDXDXDXDXDXDXDXDXDX",
"DXDXDXDXDXDXDXDXDXDXDXDXd.X X X X X X X X X X ^ DXDXDXDXDXJ X X X X X X X X X X J DXDXDXDXDX^ X X X X X X X X X X X.DXDXDXDXDXDXDXDXDXDXDXDX",
"DXDXDXDXDXDXDXDXDXDXDXDXa.X X X X X X X X X X ^ DXDXDXDXDXK X X X X X X X X X X J DXDXDXDXDX~ X X X X X X X X X X ..DXDXDXDXDXDXDXDXDXDXDXDX",
"DXDXDXDXDXDXDXDXDXDXDXDXd.X X X X X X X X X X / DXDXDXDXDXK X X X X X X X X X X J DXDXDXDXDX^ X X X X X X X X X X #.DXDXDXDXDXDXDXDXDXDXDXDX",
"DXDXDXDXDXDXDXDXDXDXDXDXh.X X X X X X X X X X ^ DXDXDXDXDXJ X X X X X X X X X X J DXDXDXDXDX~ X X X X X X X X X X #.DXDXDXDXDXDXDXDXDXDXDXDX",
"DXDXDXDXDXDXDXDXDXDXDXDXj.X X X X X X X X X X ^ DXDXDXDXDXJ X X X X X X X X X X J DXDXDXDXDX^ X X X X X X X X X X $.DXDXDXDXDXDXDXDXDXDXDXDX",
"DXDXDXDXDXDXDXDXDXDXDXDXh.X X X X X X X X X X ^ DXDXDXDXDXK X X X X X X X X X X J DXDXDXDXDX^ X X X X X X X X X X $.DXDXDXDXDXDXDXDXDXDXDXDX",
"DXDXDXDXDXDXDXDXDXDXDXDXk.X X X X X X X X X X ^ DXDXDXDXDXP X X X X X X X X X X J DXDXDXDXDXQ X X X X X X X X X X #.DXDXDXDXDXDXDXDXDXDXDXDX",
"DXDXDXDXDXDXDXDXDXDXDXDXl.X X X X X X X X X X ^ DXDXDXDXDXK X X X X X X X X X X G DXDXDXDXDX! X X X X X X X X X X #.DXDXDXDXDXDXDXDXDXDXDXDX",
"DXDXDXDXDXDXDXDXDXDXDXDXj.X X X X X X X X X X ^ DXDXDXDXDXJ X X X X X X X X X X G DXDXDXDXDX~ X X X X X X X X X X #.DXDXDXDXDXDXDXDXDXDXDXDX",
"DXDXDXDXDXDXDXDXDXDXDXDXh.X X X X X X X X X X ~ DXDXDXDXDXJ X X X X X X X X X X J DXDXDXDXDX^ X X X X X X X X X X #.DXDXDXDXDXDXDXDXDXDXDXDX",
"DXDXDXDXDXDXDXDXDXDXDXDXh.X X X X X X X X X X ~ DXDXDXDXDXJ X X X X X X X X X X H DXDXDXDXDX~ X X X X X X X X X X $.DXDXDXDXDXDXDXDXDXDXDXDX",
"DXDXDXDXDXDXDXDXDXDXDXDXl.X X X X X X X X X X ! DXDXDXDXDXJ X X X X X X X X X X J DXDXDXDXDX~ X X X X X X X X X X a.DXDXDXDXDXDXDXDXDXDXDXDX",
"DXDXDXDXDXDXDXDXDXDXDXDXl.X X X X X X X X X X ^ DXDXDXDXDXJ X X X X X X X X X X J DXDXDXDXDX^ X X X X X X X X X X a.DXDXDXDXDXDXDXDXDXDXDXDX",
"DXDXDXDXDXDXDXDXDXDXDXDXk.X X X X X X X X X X Q DXDXDXDXDXG X X X X X X X X X X J DXDXDXDXDX^ X X X X X X X X X X $.DXDXDXDXDXDXDXDXDXDXDXDX",
"DXDXDXDXDXDXDXDXDXDXDXDXk.X X X X X X X X X X ^ DXDXDXDXDXG X X X X X X X X X X J DXDXDXDXDX^ X X X X X X X X X X $.DXDXDXDXDXDXDXDXDXDXDXDX",
"DXDXDXDXDXDXDXDXDXDXDXDXj.X X X X X X X X X X T DXDXDXDXDXJ X X X X X X X X X X D DXDXDXDXDX^ X X X X X X X X X X  .DXDXDXDXDXDXDXDXDXDXDXDX",
"DXDXDXDXDXDXDXDXDXDXDXDXf.o o o o o o o o o o ~ DXDXDXDXDXK o o o o o o o o o o H DXDXDXDXDX( o o o o o o o o o o } DXDXDXDXDXDXDXDXDXDXDXDX",
"DXDXDXDXDXDXDXDXDXDXDXDXP.w w w w w w w w w w S.DXDXDXDXDX8.w w w w w w w w w w 7.DXDXDXDXDXD.w w w w w w w w w w G.DXDXDXDXDXDXDXDXDXDXDXDX",
"DXDXDXDXDXDXDXDXDXDXDXDXDXz x x x x x x x x x 2XDXDXDXDXDXXXx x x x x x x x x x  XDXDXDXDXDX1Xx x x x x x x x x x bXDXDXDXDXDXDXDXDXDXDXDXDX",
"DXDXDXDXDXDXDXDXDXDXDXDXDXA x x x x x x x x x DXDXDXDXDXDXaXx x x x x x x x x x wXDXDXDXDXDXDXx x x x x x x x x V DXDXDXDXDXDXDXDXDXDXDXDXDX",
"DXDXDXDXDXDXDXDXDXDXDXDXDXr.x x x x x x x x B DXDXDXDXDXDXDXc x x x x x x x x c DXDXDXDXDXDXDXn x x x x x x x x e.DXDXDXDXDXDXDXDXDXDXDXDXDX",
"DXDXDXDXDXDXDXDXDXDXDXDXDXxXg g g g g g g h +XDXDXDXDXDXDXDX!.g g g g g g g g Q.DXDXDXDXDXDXDX>Xh g g g g g g g iXDXDXDXDXDXDXDXDXDXDXDXDXDX",
"DXDXDXDXDXDXDXDXDXDXDXDXDX| > : : : : : : , F DXDXDXDXDXDXDX0 > : : : : : : < q DXDXDXDXDXDXDXG , : : : : : : > _ DXDXDXDXDXDXDXDXDXDXDXDXDX",
"DXDXDXDXDXDXDXDXDXDXDXDXV.X X X X X X X X X X { DXDXDXDXDXY X X X X X X X X X X E DXDXDXDXDX[ X X X X X X X X X X C.DXDXDXDXDXDXDXDXDXDXDXDX",
"DXDXDXDXDXDXDXDXDXDXDXDXX.X X X X X X X X X X R DXDXDXDXDXD X X X X X X X X X X H DXDXDXDXDXW X X X X X X X X X X  .DXDXDXDXDXDXDXDXDXDXDXDX",
"DXDXDXDXDXDXDXDXDXDXDXDXm.X X X X X X X X X X ) DXDXDXDXDXU X X X X X X X X X X I DXDXDXDXDX' X X X X X X X X X X c.DXDXDXDXDXDXDXDXDXDXDXDX",
"DXDXDXDXDXDXDXDXDXDXDXDXDX9 X X X X X X X X 3 jXDXDXDXDXDXDX$ X X X X X X X X $ #XDXDXDXDXDXDX3 X X X X X X X X 4 DXDXDXDXDXDXDXDXDXDXDXDXDX"
};
