/* XPM */
static char *_dcc90fff46842d1a8682f12a4b4ff3c[] = {
/* columns rows colors chars-per-pixel */
"47 62 195 2 ",
"   c None",
".  c #040404",
"X  c #0A0604",
"o  c #070807",
"O  c #0B0806",
"+  c #0A0A0A",
"@  c #120B06",
"#  c #120D0A",
"$  c #13100E",
"%  c #1C110A",
"&  c #121211",
"*  c #1B1C1B",
"=  c #1B1612",
"-  c #2C1507",
";  c #25160C",
":  c #2D1708",
">  c #2E190C",
",  c #341B0C",
"<  c #3A1E0D",
"1  c #331E11",
"2  c #3D210F",
"3  c #222322",
"4  c #2D2D2D",
"5  c #2F302F",
"6  c #3B302F",
"7  c #353534",
"8  c #3B3936",
"9  c #3C3C3B",
"0  c #3D3130",
"q  c #442512",
"w  c #452E1F",
"e  c #473121",
"r  c #533C2C",
"t  c #473C35",
"y  c #40403F",
"u  c #444443",
"i  c #484847",
"p  c #4C4C4A",
"a  c #4C4342",
"s  c #51514F",
"d  c #5A5149",
"f  c #535352",
"g  c #595957",
"h  c #5D5D5B",
"j  c #5E5650",
"k  c #564A42",
"l  c #7B5351",
"z  c #7C4948",
"x  c #60605F",
"c  c #636361",
"v  c #696865",
"b  c #6D6D6B",
"n  c #6C6762",
"m  c #726462",
"M  c #716F6B",
"N  c #71706E",
"B  c #757573",
"V  c #787876",
"C  c #7D7D7A",
"Z  c #BD3E3D",
"A  c #DA0202",
"S  c #DC0B0B",
"D  c #DC0807",
"F  c #DC1413",
"G  c #DD1817",
"H  c #DE1E1E",
"J  c #E31E1D",
"K  c #DE201E",
"L  c #DF2322",
"P  c #DD2C2B",
"I  c #DA2827",
"U  c #DB302E",
"Y  c #D7302F",
"T  c #CD3736",
"R  c #CD3836",
"E  c #C83B3A",
"W  c #C33C3A",
"Q  c #D53230",
"!  c #DC3433",
"~  c #DB3837",
"^  c #DD3B3A",
"/  c #E72624",
"(  c #E62827",
")  c #D9413F",
"_  c #835B5A",
"`  c #945F5D",
"'  c #844A49",
"]  c #A94C4A",
"[  c #A64948",
"{  c #B54948",
"}  c #BA4342",
"|  c #A25250",
" . c #8D6563",
".. c #80706E",
"X. c #867E77",
"o. c #817775",
"O. c #A57E7C",
"+. c #BD7B79",
"@. c #C34140",
"#. c #D74E4C",
"$. c #D94543",
"%. c #D5524F",
"&. c #D35E5C",
"*. c #C65654",
"=. c #F24845",
"-. c #EE5653",
";. c #FF5E5A",
":. c #FC5855",
">. c #ED4A48",
",. c #D3605D",
"<. c #FA615D",
"1. c #CA6C6A",
"2. c #D46765",
"3. c #CE716E",
"4. c #D0706D",
"5. c #CC7270",
"6. c #D27A76",
"7. c #FB6662",
"8. c #F26A66",
"9. c #EE7470",
"0. c #F77773",
"q. c #81817E",
"w. c #888078",
"e. c #878077",
"r. c #AC807D",
"t. c #B3827F",
"y. c #858482",
"u. c #898986",
"i. c #8E8E8B",
"p. c #988482",
"a. c #91918E",
"s. c #959593",
"d. c #9A9A97",
"f. c #9C9C99",
"g. c #AC8986",
"h. c #A7908D",
"j. c #B6928F",
"k. c #A49D9A",
"l. c #B49C98",
"z. c #A2A19E",
"x. c #B4A09D",
"c. c #A6A6A2",
"v. c #AAAAA6",
"b. c #ADADA9",
"n. c #B1AFAA",
"m. c #B6A3A0",
"M. c #B2B0AB",
"N. c #BEB2AE",
"B. c #B5B5B2",
"V. c #BDB5B1",
"C. c #BAB9B5",
"Z. c #BDBCB8",
"A. c #CC8683",
"S. c #CA8986",
"D. c #C88F8C",
"F. c #C59C98",
"G. c #C89592",
"H. c #E08480",
"J. c #F98581",
"K. c #E89A96",
"L. c #EEA19D",
"P. c #C1A9A5",
"I. c #C1AEAA",
"U. c #C9A6A2",
"Y. c #D6AEAA",
"T. c #C0B1AD",
"R. c #C8B9B5",
"E. c #E0B0AC",
"W. c #FCB0AB",
"Q. c #E3B8B4",
"!. c #FDBFBB",
"~. c #ECAAA6",
"^. c #C0C0BC",
"/. c #CAC3BF",
"(. c #CACAC6",
"). c #CECECA",
"_. c #C7C7C3",
"`. c #D3D2CE",
"'. c #D6D6D2",
"]. c #D9D9D5",
"[. c #DEDEDA",
"{. c #D9D6D2",
"}. c #D5C7C3",
"|. c #EACFCB",
" X c #FDD6D1",
".X c #E4D9D5",
"XX c #E2E2DE",
"oX c #E5E5E1",
"OX c #EAEAE6",
"+X c #EDEDE8",
"@X c #F3EEE9",
"#X c #F2F2ED",
"$X c #FAFAF5",
"%X c #FEFEF9",
"&X c #F7F7F2",
/* pixels */
"                                                                                              ",
"                                                                                              ",
"                                                                                              ",
"                                                                                              ",
"                                        + o . . . o O                                         ",
"                                        . . . . . . .                                         ",
"                                      = # @ @ @ @ @ @ $                                       ",
"                                  + o % q q q q q q q % X +                                   ",
"                                  # X % q q q q q q q ; X #                                   ",
"                              + $ ; , , , < < , < < , , : ; % +                               ",
"                              . @ > q q - - - - - - - 2 q 1 # . +                             ",
"                            7 7 9 r r e - - - - - - - w r r 8 8 7                             ",
"                        + + g d.f.y.n d > : - : - - , k v q.d.f.v o +                         ",
"                        o . f z.b.i.N j 1 , : > : , , d N u.c.c.v . o                         ",
"                        o . t C i.i.i.u.w.w.w.X.w.w.w.u.i.i.a.q.p . o                         ",
"                        o . 9 v q.a.d.z.b.M.M.M.M.M.M.z.d.a.y.b u . o                         ",
"                        + o 7 p x V a.d.c.c.c.v.c.c.c.d.a.q.c s 9 o +                         ",
"                            3 3 7 x q.q.u.u.u.u.u.u.u.y.q.c 9 3 4                             ",
"                              . * p B V V V V V V V V B B s 3 . +                             ",
"                              . * p B V q.y.y.y.y.y.y.C B s 3 . +                             ",
"                              . * i V y.d.f.f.f.d.f.d.y.V s 3 . +                             ",
"                              o * p V q.d.f.f.f.f.f.d.u.V f 3 . &                             ",
"                              . * p V q.d.d.f.f.f.f.d.y.V s 3 . +                             ",
"                              . * i V q.d.f.f.f.f.d.d.y.V f * . +                             ",
"                              . * p V y.d.f.c.c.c.f.d.y.V f 3 . +                             ",
"                              . * p V q.d.f.b.C.M.z.f.y.V s 3 . +                             ",
"                            * & 3 f C u.f.z.B.^.B.c.f.u.C g 4 + *                             ",
"                        $ + 7 g b q.s.z.B.C.(.'.(.C.B.z.d.y.b g u + +                         ",
"                        o . 7 c V i.f.c.C.Z.).'.).R.V.v.f.i.C c t . .                         ",
"                      * 7 7 g C i.f.v.B._.(.[.OXoX[.{.U.S.g.p.o.x 7 7 *                       ",
"                    . * s x V i.f.v.C.^.`.'.+X$X&X#X@XL.9.6.g.s.C c f * o                     ",
"                  . . * g B u.s.k.m.m.R.`.'.+X$X$X%X$XW.J.H.j.s.u.B x * . o                   ",
"                  o . = h B u.s.h.+.4.S._.(.[.OX#X%X%X X!.Y.m.s.u.B c * . o                   ",
"                  + o * h B u.s.O.*.~ &.V.R.).'.XX$X%X%X%XoXC.f.i.B c * o +                   ",
"                  * * 5 v q.i.f.h.1.#.3.V.Z.(.'.[.#X&X%X%XoXZ.c.s.C b 5 * *                   ",
"              . o 9 x N i.s.c.B.N.N.N.N.Z.Z.R.^.(.'.[.#X$X@X[._.B.s.i.B c 9 + .               ",
"              . o y b C a.f.v.B.Z.Z.Z.Z.Z.Z.V.N.R.`.'.OX$X@X.X}.V.f.s.C N u o .               ",
"              . . y b C a.f.v.C.Z.Z.Z.C.Z.V.A.2.S.R.(.].oX|.~.K.G.f.s.X.N u o .               ",
"              . . y b C s.f.b.B.Z.Z.Z.Z.Z.V.,.! ,.I.Z.'.'.Q.J.8.6.f.s.C N u o .               ",
"              . o y b V O.r.l.B.Z.Z.C.N.F.D.%.P #.D.F.Y.Q.K.0.8.4.t.O.o.N i o .               ",
"              . o y b  .@.! 5.P.Z.Z.V.D.) ! P ( U ^ ^ -.7.7.<.:.>.! E  .b u o .               ",
"              . o y b  .E P 4.P.Z.B.V.S.! P I P ( P ( =.:.;.;.:.=.P T  .M u o .               ",
"              . . y b  .E P $.&.2.2.,.%.P P P P L G F J / / ( ( ( P T  .M u o .               ",
"              . . y b  .E ( U ! ~ ! ! Q ( P P ( H D A D D D A S J I T  .B u o .               ",
"              . o y b  .E ( L H H H H H H H H H F A A A A A A D F P T  .N u o .               ",
"              . . y b  .E I H F S S S S S S S S S A A A A A A A F L T  .N u o .               ",
"              . o y b  .E P G A A A A A A A A A A A A A A A A D G P T  .M u o .               ",
"              . . y b  .E P H A A A A A A A A A A A A A A D S F H P Q  .M u o .               ",
"              . o 9 b  .E P F D A A A A A A A A A A A A A S H ( ( P R  .N u + .               ",
"              + + u v _ Z Q H S D D D A A S D A D A D D A F K P P Y W _ v u & +               ",
"                  3 3 6 l ` } L H H H H K H H H K K K K K L P Y } ` _ 0 3 3                   ",
"                  o . * g N ` T Y Y Y Y P Q P Y Y U U U Y P P E ] b h * o +                   ",
"                    + * y i z [ { { { { { { { { { { { { { { { ] ' p u * +                     ",
"                        & & t m ........B ....................m a + &                         ",
"                        o . 8 h b b b b b M b b M b b b M b b c y . o                         ",
"                            3 * * * * * * * * * * * * * * * * * 3                             ",
"                              o o . . . . o . . . . . o . o . o &                             ",
"                              + o o o o o o o . o o . o o o o o                               ",
"                                                                                              ",
"                                                                                              ",
"                                                                                              ",
"                                                                                              "
};
