/* XPM */
static char *_9879a33828846ec9f2e823587695830[] = {
/* columns rows colors chars-per-pixel */
"65 53 118 2 ",
"   c None",
".  c black",
"X  c #000100",
"o  c #010101",
"O  c #030202",
"+  c gray1",
"@  c #040404",
"#  c gray2",
"$  c #060606",
"%  c #080708",
"&  c #090809",
"*  c gray4",
"=  c #0B0B0B",
"-  c #0C0C0C",
";  c gray5",
":  c #0E0E0E",
">  c gray6",
",  c #101010",
"<  c #111111",
"1  c gray7",
"2  c gray8",
"3  c #161716",
"4  c #171817",
"5  c #181918",
"6  c #191A19",
"7  c #1B1B1B",
"8  c gray11",
"9  c #1D1D1D",
"0  c gray12",
"q  c #202020",
"w  c gray13",
"e  c #232323",
"r  c #252425",
"t  c #262526",
"y  c #272627",
"u  c #282728",
"i  c #292829",
"p  c #2B2A2A",
"a  c #2C2C2C",
"s  c #2D2D2C",
"d  c gray18",
"f  c #2F2F2F",
"g  c gray19",
"h  c gray20",
"j  c #343535",
"k  c #353536",
"l  c #363737",
"z  c #373838",
"x  c #393A3A",
"c  c #3A3B3B",
"v  c gray24",
"b  c #3F3F3F",
"n  c #414141",
"m  c #444444",
"M  c #464646",
"N  c gray28",
"B  c #494949",
"V  c gray29",
"C  c #4C4C4C",
"Z  c #4E4E4E",
"A  c gray31",
"S  c #505050",
"D  c #515151",
"F  c gray33",
"G  c #555555",
"H  c gray34",
"J  c gray35",
"K  c #5B5B5B",
"L  c #5F5F5F",
"P  c gray38",
"I  c gray39",
"U  c #656565",
"Y  c gray40",
"T  c #676767",
"R  c DimGray",
"E  c gray42",
"W  c #6C6C6C",
"Q  c #6D6D6D",
"!  c #6F6F6F",
"~  c #727272",
"^  c #747474",
"/  c #767676",
"(  c #777777",
")  c #797979",
"_  c gray48",
"`  c #7B7B7B",
"'  c #808080",
"]  c #818181",
"[  c gray51",
"{  c #868686",
"}  c gray53",
"|  c #898989",
" . c gray55",
".. c #939393",
"X. c #959595",
"o. c gray60",
"O. c #9A9A9A",
"+. c gray61",
"@. c #A2A2A2",
"#. c gray64",
"$. c #A5A5A5",
"%. c #A7A7A7",
"&. c #AAAAAA",
"*. c #B7B7B7",
"=. c gray",
"-. c #C3C3C3",
";. c gray77",
":. c gray79",
">. c gray81",
",. c gray83",
"<. c #D7D7D7",
"1. c #D8D8D8",
"2. c gray85",
"3. c #DDDDDC",
"4. c #E2E2E2",
"5. c gray89",
"6. c #EAEAEA",
"7. c #F6F6F6",
/* pixels */
"                                                                                                                                  ",
"                                                                                                                              w ~ ",
"                                                                                                                          A @ @   ",
"                                                                                                                        : + + M   ",
"                                                                                                                    & + + & +     ",
"                                                                                                              2 + + + + h , A     ",
"                                                                                                        + + + + + + + 0 M :       ",
"                                                                                                    + + + + + + + + : } @         ",
"                                                                                                  + + + + + + + + @ X.w z         ",
"                                                                                              w + + + + + + + + + ' H @           ",
"                                                                                            : + + + + + + + + + ! X.+ !           ",
"                                                                                          + + + + + + + + + + E *.& h             ",
"                                                                                      a + + + + + + + + + + E :.t ,               ",
"                                                                                    : + + + + + + + + + + I 3.v +                 ",
"                                                                                    + + + + + + + + + + U   A +                   ",
"                                                                                    B + + + + + + + + ~ 6.E + B                   ",
"                                                                            w &     p + + + + + + @ ' 5.{ + l                     ",
"                                                                          : + + , 3 + + + + + + &  .4.O.+ 0                       ",
"                                                                        n + + + + + + + + + + 2 %.  #.+ :                         ",
"                                                                          + + + + + + + + + 5 =.  %.@ &                           ",
"                                                                  3 U     + + + + + + + + l 1.  +., @                             ",
"                                                                & + + z 2 + + + + + + + J 6.  .., =                               ",
"                                                              @ + + + + + + + + + + @ ~ 7.  O.: =                                 ",
"                                                              J + + + + + + + + + 2 O.    X.& :                                   ",
"                                                        a       + + + + + + + + w ;.     .+ %                                     ",
"                                                      + + 0 ( : + + + + + + + z       ' + &                                       ",
"                                                  h + + + + + + + + + + + + (       I + :                                         ",
"                                                5 + + + + + + + + + + + :         M + 0                                           ",
"                                              w + + + + + + + + + + + a       <.h + a                                             ",
"                                                + + + + + + + + + + I       -.p + A                                               ",
"                                  @ + I         K + + + + + + + &         *.3 + I                                                 ",
"                                + + + +           t + + + + + 3         #.: @                                                     ",
"                                + + + + @         >.& + + + h         ) @ ,                                                       ",
"                                p + + + + w         &.+ + t         M + p                                                         ",
"                                ( + + + + + n         K + + { 6.<.a + A                                                           ",
"                                @ + + + + + + E       3.h + , ) 3 %                                                               ",
"                              + + + + + + + + + #.        3 + + w                                                                 ",
"                          h + + + + + + + + + + , 3.        + v                                                                   ",
"                        : + + + + + + + + + + + + l                                                                               ",
"                      + + + + + + + + + + + + + + + E                                                                             ",
"                    + + + + + + + + + + + + + + + + +                                                                             ",
"                u + + + + + + + + + + + + : t + + + +                                                                             ",
"              , + + + + + + + + + + + + :     w + + l                                                                             ",
"            @ + + + + + + + + + + + + @         H )                                                                               ",
"        H + + + + + + + + + + + + + &                                                                                             ",
"      p + + + + + + + + + + + + + :                                                                                               ",
"    : + + + + + + + + + + + + + 5                                                                                                 ",
"  & + + + + + + + + + + + + + v                                                                                                   ",
"t + + + + + + + + + + + + @                                                                                                       ",
", + + + + + + + + + + + h                                                                                                         ",
"  + + + + + + + + + 4                                                                                                             ",
"  u + + + + + + w                                                                                                                 ",
"    x : , h                                                                                                                       "
};
