/* XPM */
static char *_ec3bb279a34402fd8778b090bc3b48c[] = {
/* columns rows colors chars-per-pixel */
"35 57 169 2 ",
"   c None",
".  c #000000",
"X  c #0A0503",
"o  c #0A0A0A",
"O  c #130A06",
"+  c #0F1010",
"@  c #111111",
"#  c #1C1C1C",
"$  c #1F1713",
"%  c #22120B",
"&  c #3B1F10",
"*  c #1F201F",
"=  c #3C2112",
"-  c #222222",
";  c #2B2C2B",
":  c #2E2521",
">  c #392D26",
",  c #333333",
"<  c #3C3B3B",
"1  c #4A2A16",
"2  c #4C301F",
"3  c #58341C",
"4  c #643312",
"5  c #683613",
"6  c #663818",
"7  c #6B3818",
"8  c #773E17",
"9  c #763F19",
"0  c #783E14",
"q  c #493A31",
"w  c #7B4117",
"e  c #7A4119",
"r  c #70492E",
"t  c #444444",
"y  c #4B4B4B",
"u  c #494240",
"i  c #40525D",
"p  c #555555",
"a  c #5E5E5E",
"s  c #555658",
"d  c #6D584A",
"f  c #785A4A",
"g  c #7F624F",
"h  c #796355",
"j  c #5F5E60",
"k  c #5B6064",
"l  c #676767",
"z  c #6B6665",
"x  c #676769",
"c  c gray42",
"v  c #7F776F",
"b  c #626B71",
"n  c gray45",
"m  c #77787A",
"M  c #7A7A7A",
"N  c #7E7570",
"B  c #81624D",
"V  c #4D6B82",
"C  c #58738A",
"Z  c #3F8CBF",
"A  c #7F8181",
"S  c #78828C",
"D  c #6F8A9A",
"F  c #5F8AAB",
"G  c #588EB2",
"H  c #6689A3",
"J  c #6D97B6",
"K  c #1581CE",
"L  c #1482D1",
"P  c #168ADB",
"I  c #1F8DDD",
"U  c #3E96D3",
"Y  c #3698DD",
"T  c #3795D7",
"R  c #178CE1",
"E  c #188FE4",
"W  c #1694EB",
"Q  c #1994EC",
"!  c #1A99F3",
"~  c #1C9FFC",
"^  c #279CEC",
"/  c #3498E1",
"(  c #249DF3",
")  c #1BA0FE",
"_  c #3CA1E7",
"`  c #2BA2F4",
"'  c #23A1F7",
"]  c #33A3F1",
"[  c #4098D5",
"{  c #519ED4",
"}  c #4EA0D9",
"|  c #62A1CB",
" . c #6DADDC",
".. c #74B1DC",
"X. c #7AB5DA",
"o. c #46A7E9",
"O. c #59ACE6",
"+. c #55ACEA",
"@. c #59AFEB",
"#. c #4CAEF4",
"$. c #41A8F1",
"%. c #6DB3E4",
"&. c #7BB6E1",
"*. c #818181",
"=. c #87898B",
"-. c #8B8B8B",
";. c #9F8C80",
":. c #98908C",
">. c #949494",
",. c #989897",
"<. c #9B9B9B",
"1. c #979899",
"2. c #A18B80",
"3. c #A1A09F",
"4. c #9C9EA2",
"5. c #959EA3",
"6. c #A29FA1",
"7. c #9DA0A2",
"8. c #80A0B7",
"9. c #86A4BB",
"0. c #99A8B1",
"q. c #A1A0A1",
"w. c #A7A8A7",
"e. c #ACACAC",
"r. c #A7A9A9",
"t. c #AAAFB5",
"y. c #B4B4B4",
"u. c #BBBBBB",
"i. c #BFC0BF",
"p. c #C1C0BE",
"a. c #81AECF",
"s. c #9AB6CA",
"d. c #9EBACE",
"f. c #9AB3C5",
"g. c #86B5D4",
"h. c #8FB8D7",
"j. c #89B5D4",
"k. c #9CBAD0",
"l. c #A4BACC",
"z. c #B1BCC4",
"x. c #BABFC4",
"c. c #82BEE9",
"v. c #C1BFC0",
"b. c #95C0DE",
"n. c #BDC1C2",
"m. c #B2C1CE",
"M. c #A5C5DA",
"N. c #B8CBD9",
"B. c #BAD0DE",
"V. c #95C2E3",
"C. c #9BC4E1",
"Z. c #A6C9E1",
"A. c #A3C7E2",
"S. c #C0C0C1",
"D. c gray80",
"F. c #C7C7C9",
"G. c #D0CFCE",
"H. c #CECFD0",
"J. c #D5D5D5",
"K. c #DBDBDC",
"L. c #D5D7D9",
"P. c #C4D5E2",
"I. c #C2DBEA",
"U. c #CCE0E9",
"Y. c #DBE4E9",
"T. c #E2E2E2",
"R. c #ECECEC",
"E. c #F2F2F2",
"W. c #FDFDFD",
/* pixels */
"                                                                      ",
"                          < + + + + @ o @                             ",
"                          q o o X X X X X                             ",
"                          q & & & & & = = u                           ",
"                      * . = w w w w w w e O . .                       ",
"                      : O 1 0 9 8 8 8 0 8 % O $                       ",
"                # # > 3 4 4 4 5 5 5 5 5 5 5 4 2 - -                   ",
"                o . % 4 9 9 4 4 4 4 4 4 4 9 w 1 . .                   ",
"            t < a x z g g r 6 4 4 4 4 4 4 f B h x x a ,               ",
"            @ . M S.y.-.*.d 4 4 4 4 4 4 4 N A >.S.v.p . #             ",
"            @ . *.u.e.-.*.d 6 6 6 6 6 6 6 B *.1.v.u.y . #             ",
"            o . l 1.1.,.,.:.2.2.2.2.2.2.:.5.>.,.,.,.< . #             ",
"            + . p *.=.<.3.y.S.S.S.S.S.S.S.w.q.1.*.A , . #             ",
"            < , p l n >.,.w.y.y.y.y.y.y.y.q.,.=.l l y , <             ",
"                . . - x B *.*.*.*.*.*.A D =.*.p . . x                 ",
"                . . - x D =.*.*.A A *.*.B A *.p . .                   ",
"                . . - x *.=.-.-.-.-.-.-.:.*.A p . .                   ",
"                . . - x B >.q.q.3.3.q.q.3.*.*.p . .                   ",
"                . . - x D <.q.q.3.q.q.3.3.=.*.s . .                   ",
"                . . - x *.>.q.q.q.3.q.q.3.*.*.p . .                   ",
"                . . - x A >.4.q.q.3.3.7.3.*.*.s . .                   ",
"                X . - x S >.6.<.y.e.e.q.w.*.*.s . .                   ",
"                . . - l =.5.q.3.u.S.u.q.3.*.*.s . .                   ",
"                o . - l B >.3.6.S.S.y.q.3.*.*.s . .                   ",
"            y y p p l =.>.w.y.y.J.J.D.y.y.,.>.A p p p t y             ",
"            @ . p *.=.,.6.y.v.v.T.T.L.n.S.w.q.,.*.*., . @             ",
"          t ; - l =.:.3.w.u.F.F.R.T.K.H.J.t.0.7.=.=.y - ,             ",
"      ; o ; n m >.<.w.y.u.D.K.J.W.W.W.W.W.M.b.f.4.3.=.m a $ @         ",
"      # . - m *.,.6.r.u.v.G.K.K.W.W.W.W.W.Z.V.f.q.q.-.A a o .         ",
"      * . - m *.:.3.0.X.X.M.D.J.E.E.E.W.W.U.I.N.q.q.-.*.a o .         ",
"      # . * M *.,.3.J o.( %.S.S.K.K.R.W.W.W.W.K.q.q.-.A a X .         ",
"      ; @ , *.*.<.w.9.o.] X.p.S.L.L.K.W.W.W.W.T.r.r.>.*.l # @         ",
"  * ; a l n ,.<.e.u.z.l.l.z.n.S.F.S.D.T.T.W.W.E.G.H.e.<.-.c x < # ,   ",
"  . @ x *.=.<.3.y.p.S.S.S.S.i.p.n.S.F.K.K.W.W.E.K.K.u.q.,.*.*.; . #   ",
"  . @ x *.=.<.3.y.S.S.p.S.p.p.n.....h.H.D.R.E.Y.B.B.g.| J A C ; . *   ",
"  . @ x *.=.3.7.y.S.S.S.n.n.n.n.] ` +.S.S.K.K.P.A.C.@.^ [ S ;.; . -   ",
"  . @ l *.=.4.7.y.p.v.n.p.n.x.m.( ) $.n.x.L.K.P.V.V.#.) Y S *.; . -   ",
"  . @ l B D { } s.v.S.p.n.j.O.+.~ ) ` +.O.A.Z.A.V.V.#.) Y S *.; . *   ",
"  . @ l =.H ( ) g.n.S.S.n. .) ) ) ) ) ) ( c.V.V.b.V.#.) Y S A ; . #   ",
"  . @ l S J ( ) ..k.d.d.k.O.) ) ) ) ~ ! ! %.&.X.&.&.$.~ Y S A ; . #   ",
"  . @ l *.H ( ) ) ) ' ~ ~ ) ~ ) ) ) ! K K K K K K K Q ) Y S *.; . #   ",
"  . @ x *.H ( ~ ) ) ) ) ) ) ) ) ~ ~ ! K K K K K K K Q ) Y S *.; . #   ",
"  . @ l *.H ( ) ! Q Q Q Q Q Q Q W Q R K L K K K K K Q ) Y S *.; . #   ",
"  . @ x *.H ( ) P K K K L K K K K K K K K K L K K K Q ) Y S *.; . #   ",
"  . @ l *.H ^ ) P K K K K K K K K K K K K L L L L L Q ) / S C ; . #   ",
"  . @ l =.D ( ' R K K K K L L K K K K K K K K P ) ! ) ) / S *.> . #   ",
"  . @ l C D ( ~ R K K K K K K K K K K K K K K R ) ) ) ) / S *.; . #   ",
"  , < a l C T Y I P P P P P P P P P P P P P P W ) ' ^ / G b l t , y   ",
"      - . - M S U ) ~ ) ~ ~ ~ ~ ~ ~ ~ ~ ~ ) ~ ) ) ~ G C z O .         ",
"      - . - M A U ) ~ ~ ~ ~ ) ~ ~ ~ ~ ) ~ ~ ~ ~ ~ ) G *.j o .         ",
"          x , ; V F F F F F F F F F F F F F F F F F i ; y =.          ",
"            @ . s A A A A A A A A A A A A A A A A *., . ,             ",
"            ; - p a a a a a a j a a a a a a a a j a t # ;             ",
"                - o X o o o o o o o o o o X X o X o c                 ",
"                . . . . . . . . . . . . . . . . . . l                 ",
"                  , , , , , , , , , , , , , , , , ,                   ",
"                                                                      "
};
