/* XPM */
static char *result[] = {
/* columns rows colors chars-per-pixel */
"50 50 138 2 ",
"   c #3A6797",
".  c #396897",
"X  c #396898",
"o  c #396899",
"O  c #396999",
"+  c #3A6898",
"@  c #39689A",
"#  c #39699A",
"$  c #39699B",
"%  c #3A699A",
"&  c #3A699B",
"*  c #3A6A9B",
"=  c #3B6B9C",
"-  c #3A6A9D",
";  c #3C6B9E",
":  c #3C6C9F",
">  c #3C6CA0",
",  c #3C6DA0",
"<  c #3D6DA0",
"1  c #3D6EA2",
"2  c #3F6FA4",
"3  c #3F70A4",
"4  c #3F70A5",
"5  c #3F70A6",
"6  c #3D71A8",
"7  c #3D71A9",
"8  c #3D72AA",
"9  c #3D72AB",
"0  c #3D73AB",
"q  c #3D72AC",
"w  c #3D73AC",
"e  c #3D73AD",
"r  c #3E73AC",
"t  c #3E73AD",
"y  c #3E74AD",
"u  c #3E74AE",
"i  c #3E75AF",
"p  c #3F75AF",
"a  c #3F75B0",
"s  c #4072A8",
"d  c #4172A8",
"f  c #4273AB",
"g  c #4274AC",
"h  c #4374AC",
"j  c #4375AD",
"k  c #4375AE",
"l  c #4076B1",
"z  c #4477B0",
"x  c #4278B3",
"c  c #4678B2",
"v  c #4679B3",
"b  c #4178B4",
"n  c #4279B5",
"m  c #4379B6",
"M  c #437AB6",
"N  c #437AB7",
"B  c #477AB5",
"V  c #477AB6",
"C  c #487BB6",
"Z  c #437AB8",
"A  c #447BB9",
"S  c #457CBA",
"D  c #467DBC",
"F  c #467EBD",
"G  c #497CB8",
"H  c #497CB9",
"J  c #497DB9",
"K  c #497DBA",
"L  c #4A7EBB",
"P  c #4B7EBC",
"I  c #4C7FBD",
"U  c #4880BF",
"Y  c #4880C1",
"T  c #4881C2",
"R  c #4981C2",
"E  c #4D81C0",
"W  c #4E82C2",
"Q  c #4E82C3",
"!  c #4F83C3",
"~  c #4F83C4",
"^  c #4B84C6",
"/  c #4B84C7",
"(  c #4C86CA",
")  c #4D87CB",
"_  c #4E88CC",
"`  c #4F89CE",
"'  c #4F89CF",
"]  c #5085C6",
"[  c #5085C7",
"{  c #5186C8",
"}  c #5186C9",
"|  c #5187C9",
" . c #5187CA",
".. c #5287CA",
"X. c #5288CB",
"o. c #5388CB",
"O. c #5389CE",
"+. c #548ACE",
"@. c #548ACF",
"#. c #558ACF",
"$. c #558BCF",
"%. c #4F8AD0",
"&. c #508AD0",
"*. c #518BD1",
"=. c #548BD0",
"-. c #558BD0",
";. c #558BD1",
":. c #518CD2",
">. c #528DD3",
",. c #558CD1",
"<. c #558CD2",
"1. c #528CD4",
"2. c #528DD4",
"3. c #528DD5",
"4. c #528ED6",
"5. c #538FD7",
"6. c #548FD7",
"7. c #5490D8",
"8. c #5591DB",
"9. c #5793DE",
"0. c #5794DF",
"q. c #5895E1",
"w. c #5995E1",
"e. c #5996E2",
"r. c #5A97E3",
"t. c #5A97E4",
"y. c #5A98E5",
"u. c #5B98E6",
"i. c #5B99E6",
"p. c #5B99E7",
"a. c #5C99E7",
"s. c #5D9AE8",
"d. c #5D9AE9",
"f. c #5D9BE9",
"g. c #5D9BEA",
"h. c #5D9BEB",
"j. c #5D9CEB",
"k. c None",
/* pixels */
"k.k.k.k.k.k.k.k.k.k.k.k.k.k.k.k.k.k.k.k.k.k.k.k.k.k.k.k.k.k.k.k.k.k.k.k.k.k.k.k.k.k.k.k.k.k.k.k.k.k.",
"k.k.k.k.k.k.k.k.k.k.k.k.k.k.k.k.k.k.k.k.k.k.k.k.k.k.k.k.k.k.k.k.k.k.k.k.k.k.k.k.k.k.k.k.k.k.k.k.k.k.",
"k.k.k.k.k.k.k.k.k.k.k.k.k.k.k.k.k.k.k.k.k.k.k.k.8 # k.k.k.k.k.k.k.k.k.k.k.k.k.k.k.k.k.k.k.k.k.k.k.k.",
"k.k.k.k.k.k.k.k.k.k.k.k.k.k.k.k.k.k.k.k.k.k.k.9 w O # k.k.k.k.k.k.k.k.k.k.k.k.k.k.k.k.k.k.k.k.k.k.k.",
"k.k.k.k.k.k.k.k.k.k.k.k.k.k.k.k.k.k.k.k.k.9 0 w 9 # O # X k.k.k.k.k.k.k.k.k.k.k.k.k.k.k.k.k.k.k.k.k.",
"k.k.k.k.k.k.k.k.k.k.k.k.k.k.k.k.k.k.k.8 w 0 w 9 w O # O # o k.k.k.k.k.k.k.k.k.k.k.k.k.k.k.k.k.k.k.k.",
"k.k.k.k.k.k.k.k.k.k.k.k.k.k.k.k.k.9 9 w 9 w 9 w y & O # O # O $ k.k.k.k.k.k.k.k.k.k.k.k.k.k.k.k.k.k.",
"k.k.k.k.k.k.k.k.k.k.k.k.k.k.7 9 w 0 w 0 w 0 e D e.E 1 O # O $ O $ O @ k.k.k.k.k.k.k.k.k.k.k.k.k.k.k.",
"k.k.k.k.k.7 9 7 9 8 9 9 0 0 0 w 0 w 9 w 9 b :.g.s.,.o.z * # O $ O $ O $ O # X #   k.. o . k.k.k.k.k.",
"k.k.k.k.k.w 0 w 0 w 0 0 0 0 w 0 w 9 e x 2.a.g.d.h.#.,.$.} j - O $ O $ O # O # O # O # O # + k.k.k.k.",
"k.k.k.k.9 0 w 0 w 0 0 w 0 w 0 w r T 7.p.d.g.d.h.s.,.#.,.$.;.] V ; $ O $ O # O # O # O # O o k.k.k.k.",
"k.k.k.k.8 w 0 w 0 0 w 0 p A / 1.u.d.g.d.g.d.g.s.h.$.,.$.;.$.,.$.=.W B d : # # O # O # # # O k.k.k.k.",
"k.k.k.k.9 0 0 0 Y &.1.8.q.i.f.g.d.g.d.g.d.g.d.g.d.;.$.;.-.;.$.;.$.;.$.@.| ~ I H C k # # # # k.k.k.k.",
"k.k.k.k.9 w 0 w 2.f.g.f.g.f.g.d.g.d.g.d.g.d.g.s.h.$.,.$.;.$.,.$.,.$.,.$.;.-.;.-.;.E # # # O k.k.k.k.",
"k.k.k.k.0 0 0 0 3.g.f.g.f.g.d.h.d.h.s.h.s.g.s.j.s.<.#.,.$.,.#.,.#.,.#.;.-.;.-.;.$.E # # # # k.k.k.k.",
"k.k.k.k.9 0 w 0 >.f.g.d.g.d.h.s.h.s.h.s.h.d.h.s.j.#.<.$.;.$.,.#.,.#.,.$.;.-.;.$.;.P # # # O k.k.k.k.",
"k.k.k.k.9 w 0 w ' g.d.g.d.g.d.h.s.j.s.j.s.h.s.j.s.<.#.,.$.,.#.,.#.,.$.;.-.;.-.;.-.H # # # o k.k.k.k.",
"k.k.k.k.9 0 w 0 ) d.h.d.g.d.h.s.j.s.h.s.h.d.h.s.j.#.,.$.;.$.;.$.;.$.;.-.;.-.;.-.-.c # # # O k.k.k.k.",
"k.k.k.k.8 w 9 w R g.d.g.d.g.s.h.s.h.s.h.s.g.s.h.s.,.$.;.-.;.-.;.-.;.-.;.-.-.-.-.-.g # # # X k.k.k.k.",
"k.k.k.k.8 0 w 0 F d.h.d.g.d.h.s.j.s.h.s.h.d.h.s.j.#.,.$.;.$.;.$.;.$.;.-.;.-.;.-.-.5 # # # k.k.k.k.k.",
"k.k.k.k.k.w 9 w n g.d.g.d.g.s.h.s.h.s.h.s.g.s.h.s.,.$.;.-.;.-.;.-.;.-.;.-.-.-.-.-.> # # # k.k.k.k.k.",
"k.k.k.k.k.0 w 0 i s.g.d.g.d.g.d.h.d.g.d.g.d.g.d.h.$.;.-.;.-.;.-.;.-.;.-.-.-.-.-.+.% # # # k.k.k.k.k.",
"k.k.k.k.k.w 9 w 9 t.d.g.d.g.s.h.s.h.s.h.s.g.s.h.s.,.$.;.-.;.-.;.-.;.-.;.-.-.-.-.] # # # # k.k.k.k.k.",
"k.k.k.k.k.9 w 9 w 6.h.s.g.s.j.s.j.s.h.s.h.d.h.s.j.#.;.-.;.-.;.$.;.$.;.-.-.-.-.-.P # # # O k.k.k.k.k.",
"k.k.k.k.k.q 9 w 9 ( s.h.d.h.s.j.s.j.s.j.s.h.s.j.s.,.$.;.-.;.$.;.$.;.-.-.-.-.-.-.h # # O O k.k.k.k.k.",
"k.k.k.k.k.k.w 9 w m g.s.h.s.j.s.j.s.h.s.h.d.h.s.h.$.;.-.;.-.;.-.;.-.-.-.-.-.-.O., # O # k.k.k.k.k.k.",
"k.k.k.k.k.k.8 w 8 a w.h.d.h.s.j.s.j.s.j.s.g.s.h.d.;.-.;.-.;.-.-.-.-.-.-.-.-.-.] & O # o k.k.k.k.k.k.",
"k.k.k.k.k.k.w 9 w 9 4.s.g.s.h.s.h.s.g.s.g.d.g.d.g.-.;.-.-.-.-.-.-.-.-.-.-.-.-.G O # O # k.k.k.k.k.k.",
"k.k.k.k.k.k.8 w 9 w U g.d.g.d.h.d.g.d.g.d.g.d.g.d.;.-.-.-.-.-.-.-.-.-.-.-.-.-.4 # O # . k.k.k.k.k.k.",
"k.k.k.k.k.k.k.9 w 9 u r.g.s.h.s.h.s.g.s.g.d.g.d.g.-.;.-.-.-.-.-.-.-.-.-.-.-.] # O # O k.k.k.k.k.k.k.",
"k.k.k.k.k.k.k.w 8 e 8 %.d.h.s.j.s.h.d.h.d.g.d.h.d.;.-.-.-.-.-.-.-.-.-.-.;.-.v O # O # k.k.k.k.k.k.k.",
"k.k.k.k.k.k.k.6 e 8 e N u.s.j.s.h.d.g.d.g.d.g.d.g.-.-.-.-.-.-.-.-.-.-.;.-. .: # O # k.k.k.k.k.k.k.k.",
"k.k.k.k.k.k.k.k.8 e 8 w *.h.s.j.s.h.d.h.d.g.d.h.d.;.-.-.-.-.-.-.-.-.-.-.;.B # O # O k.k.k.k.k.k.k.k.",
"k.k.k.k.k.k.k.k.w 8 e 9 Z t.j.s.h.d.g.d.g.d.g.d.g.-.-.-.-.-.-.-.-.-.-.;.{ , O # O # k.k.k.k.k.k.k.k.",
"k.k.k.k.k.k.k.k.k.e 8 w 9 ^ s.h.s.h.d.h.d.g.d.g.f.-.-.-.-.-.-.-.-.-.;.$.f O # O # k.k.k.k.k.k.k.k.k.",
"k.k.k.k.k.k.k.k.k.7 w 9 w r 5.d.h.d.g.d.g.f.g.f.g.-.-.-.-.-.-.;.-.;.$.J % # O #   k.k.k.k.k.k.k.k.k.",
"k.k.k.k.k.k.k.k.k.k.8 w 9 w l 0.d.g.f.g.f.g.f.g.f.-.-.-.-.-.;.-.;.-.Q = # O # o k.k.k.k.k.k.k.k.k.k.",
"k.k.k.k.k.k.k.k.k.k.k.9 w 9 w n t.f.g.f.g.f.g.f.g.-.-.-.-.-.-.;.-.} , # O # O k.k.k.k.k.k.k.k.k.k.k.",
"k.k.k.k.k.k.k.k.k.k.k.9 9 w 9 w S y.f.g.f.g.f.g.f.-.-.-.-.-.;.-.X.3 # O # O k.k.k.k.k.k.k.k.k.k.k.k.",
"k.k.k.k.k.k.k.k.k.k.k.k.9 9 w 9 w A t.f.g.f.g.f.g.-.-.;.-.;.-...2 # O # O # k.k.k.k.k.k.k.k.k.k.k.k.",
"k.k.k.k.k.k.k.k.k.k.k.k.k.0 9 w 0 w M 9.f.g.f.g.g.-.;.-.;.-.[ < # O # O # k.k.k.k.k.k.k.k.k.k.k.k.k.",
"k.k.k.k.k.k.k.k.k.k.k.k.k.k.0 0 w 0 0 t ` a.f.g.f.;.$.;.+.L * # O # O # k.k.k.k.k.k.k.k.k.k.k.k.k.k.",
"k.k.k.k.k.k.k.k.k.k.k.k.k.k.k.9 0 0 w 0 w A 5.f.g.$.;.! s % # O # O # k.k.k.k.k.k.k.k.k.k.k.k.k.k.k.",
"k.k.k.k.k.k.k.k.k.k.k.k.k.k.k.k.8 w 0 w 0 w 0 A _ K d $ O # O # O # k.k.k.k.k.k.k.k.k.k.k.k.k.k.k.k.",
"k.k.k.k.k.k.k.k.k.k.k.k.k.k.k.k.k.k.0 0 w 0 w 0 w O # O # O # O k.k.k.k.k.k.k.k.k.k.k.k.k.k.k.k.k.k.",
"k.k.k.k.k.k.k.k.k.k.k.k.k.k.k.k.k.k.k.9 9 w 0 w 9 # O # O # X k.k.k.k.k.k.k.k.k.k.k.k.k.k.k.k.k.k.k.",
"k.k.k.k.k.k.k.k.k.k.k.k.k.k.k.k.k.k.k.k.k.8 w 0 w O # O # k.k.k.k.k.k.k.k.k.k.k.k.k.k.k.k.k.k.k.k.k.",
"k.k.k.k.k.k.k.k.k.k.k.k.k.k.k.k.k.k.k.k.k.k.k.8 8 # X k.k.k.k.k.k.k.k.k.k.k.k.k.k.k.k.k.k.k.k.k.k.k.",
"k.k.k.k.k.k.k.k.k.k.k.k.k.k.k.k.k.k.k.k.k.k.k.k.k.k.k.k.k.k.k.k.k.k.k.k.k.k.k.k.k.k.k.k.k.k.k.k.k.k.",
"k.k.k.k.k.k.k.k.k.k.k.k.k.k.k.k.k.k.k.k.k.k.k.k.k.k.k.k.k.k.k.k.k.k.k.k.k.k.k.k.k.k.k.k.k.k.k.k.k.k."
};
