/* XPM */
static char *_c4abc23153e4fd1984d1ecdb7f88a3b[] = {
/* columns rows colors chars-per-pixel */
"56 56 41 1 ",
"  c None",
". c black",
"X c #000100",
"o c #010100",
"O c #010101",
"+ c #010201",
"@ c #020201",
"# c #020202",
"$ c #020302",
"% c #030302",
"& c gray1",
"* c #030403",
"= c #040403",
"- c #040404",
"; c #040504",
": c #050504",
"> c gray2",
", c #050605",
"< c #060606",
"1 c #060706",
"2 c #070707",
"3 c #070807",
"4 c #080807",
"5 c gray3",
"6 c #080908",
"7 c #090908",
"8 c #090909",
"9 c #0A0909",
"0 c #090A09",
"q c #0A0A09",
"w c gray4",
"e c #0B0A0A",
"r c #0A0B0A",
"t c #0B0B0B",
"y c #0B0C0B",
"u c #0C0C0C",
"i c gray5",
"p c #0E0E0D",
"a c #0E0E0E",
"s c gray6",
"d c #10100F",
/* pixels */
"                                                        ",
"                                       8            >   ",
"                                      8$$8        8$$>  ",
"                                      >$$$       >$$$$  ",
"                                      $$$$$     $$$$$   ",
"                                      $$$$$$   $$$$$    ",
"                                      $$$$$$$>$$$$$     ",
"                                      $$>>$$$$$$$$      ",
"                                      $$8 $$$$$$$       ",
"                                      $$> -$$$$         ",
"                                     >$$$>$$$$          ",
"                                    >$$$$$$$*           ",
"                                   -$$$$$$$-            ",
"                                 2$$$$$$$$$             ",
"                                >$$$$$$$$$$$            ",
"                          8>   >$$$$$$$$$$$>            ",
"                         >$$$-$$$$$$$$$$$$-             ",
"                        $$$$$$$$$$$$$$$$$$              ",
"                       $$$$$$$$$$$$$$$$$>               ",
"                      $$$$$$$$$$$$$$$$$2                ",
"                    u$$$$$$$$$$$$$$$$$                  ",
"                   2$$$$$$$$$$$$$$$$$                   ",
"                  >$$$$$$$$$$$$$$$$>                    ",
"                 >$$$$$$$$$$$$$$$$$>                    ",
"                $$$$$$$$$$$$$$$$$$$$>                   ",
"               $$$$$$$$$$$$$$$$$$$$$$>                  ",
"              u$$$$$$$$$$$$$$$$$$$$$$$$                 ",
"               &$$$$$$$$$$$$$$$$$$$$$$$$>               ",
"               $$$$$$$$$$$$$$$$$$$$$$$$$$$-             ",
"               $$$$$$$$$$$$$$$$$$$$$$$$$$$$$>           ",
"              $$$$$$$$$$$$>>$$$$$$$$$$$$$$$$$$$$$$$$    ",
"             $$$$$$$$$$$*   $$$$$$$$$$$$$$$$$$$$$$$$8   ",
"            $$$$$$$$$$$$   >$>u>$$$$$$$$$$$$$$$$$$$$8   ",
"           -$$$$$$$$$$$$   $$   >$$$$$$$$$$$$$$$$$$$8   ",
"          8$$$$$$$$$$$$$  >$>    u$$$$$$$$$$$$$$$$$$8   ",
"          2$$$$$$$$$$$$$$$$-       t$$$$$$$$$$$$$$$$8   ",
"          $$$$$$$$$$$$$$$$8          d8$$$$$$$$$$$$$    ",
"          -$$$$$$8 $$$$$$>               u*-$$$$$$$$    ",
"         8$$$$$$$  8$$$$$$                     u8>$>    ",
"         $$$$$$$y  8$$$$$$8                             ",
"        >$$$$$$$    $$$$$$>                             ",
"      2$$$$$$$$2    >$$$$$>                             ",
"     >$$$$$$$$$      $$$$$$>                            ",
"    >$$$$$$$$$2      $$$$$$>                            ",
"   >$$$$$$$$$-       8$$$$$$8                           ",
" t$$$$$$$$$$$>        $$$$$$>                           ",
" $$$$$$$$$$$>         >$$$$$$8                          ",
" $$$$$$$$$$$8         8$$$$$$8                          ",
" 8$$$$$$$$$-           =$$$$$                           ",
"  >$$$$$$$$>           8$$$$                            ",
"   >$$$$$$>             $$>                             ",
"    $$$$$$>             88                              ",
"    8$$$$>                                              ",
"     8$$$>                                              ",
"      >$>                                               ",
"                                                        "
};
